<svg xmlns:xlink="http://www.w3.org/1999/xlink" width="712" xmlns="http://www.w3.org/2000/svg" xmlns:ev="http://www.w3.org/2001/xml-events" viewBox="0 0 712 710" height="710"><defs/><g id="page1" transform="translate(5.5,5.5)"><rect x="0" width="702" fill="#ffffff" height="700" y="0"/><g id="shape1" transform="translate(229.00,40.00)"><path stroke="#000000" stroke-width="3.333329916000366" d="M25.0,50.0L95.0,50.0C108.8,50.0,120.0,38.8,120.0,25.0C120.0,11.2,108.8,.0,95.0,.0L25.0,.0C11.2,.0,.0,11.2,.0,25.0C.0,38.8,11.2,50.0,25.0,50.0z" fill-rule="nonzero" fill="#f4f9f7"/><text xml:space="preserve" style="fill:#303030;font-family:Microsoft YaHei;font-size:10.00pt"><tspan x="8.0" y="22.0">尝试获取同步资源</tspan><tspan x="34.0" y="40.0">的锁失败</tspan></text></g><g id="shape2" transform="translate(229.00,133.05)"><path stroke="#000000" stroke-width="3.333329916000366" d="M60.0,80.0L120.0,40.0L60.0,.0L.0,40.0L60.0,80.0z" fill-rule="nonzero" fill="#f4f9f7"/><text xml:space="preserve" style="fill:#303030;font-family:Microsoft YaHei;font-size:10.00pt"><tspan x="37.7" y="37.0">自旋锁/</tspan><tspan x="34.0" y="55.0">非自旋锁</tspan></text></g><g id="group3" transform="translate(40.00,212.43)"><path stroke="#7c49fa" stroke-width="3.333329916000366" d="M.0,.0L229.2,.0L229.2,378.0L.0,378.0L.0,.0z" id="shape4" fill-rule="nonzero" fill="#f6f4ff"/><g id="shape5" transform="translate(10.00,0.00)"><text xml:space="preserve" style="fill:#303030;font-family:Microsoft YaHei;font-size:10.00pt"><tspan x="4.1" y="19.0">自旋锁</tspan></text></g></g><g id="shape6" transform="translate(86.50,254.10)"><path stroke="#7c49fa" stroke-width="3.333329916000366" d="M141.0,70.0L141.0,.0L.0,.0L.0,70.0L141.0,70.0z" fill-rule="nonzero" fill="#f6f4ff"/><text xml:space="preserve" style="fill:#303030;font-family:Microsoft YaHei;font-size:10.00pt"><tspan x="18.3" y="32.0">不放弃CPU时间片</tspan><tspan x="12.0" y="50.0">通过自旋等待锁释放</tspan></text></g><g id="shape7" transform="translate(97.00,464.90)"><path stroke="#7c49fa" stroke-width="3.333329916000366" d="M.0,50.5L60.0,.0L120.0,50.5L60.0,101.0L.0,50.5z" fill-rule="nonzero" fill="#f6f4ff"/><text xml:space="preserve" style="fill:#303030;font-family:Microsoft YaHei;font-size:10.00pt"><tspan x="21.0" y="56.5">再尝试获取锁</tspan></text></g><g id="shape8" transform="translate(214.00,611.00)"><path stroke="#000000" stroke-width="3.333329916000366" d="M25.0,50.0L95.0,50.0C108.8,50.0,120.0,38.8,120.0,25.0C120.0,11.2,108.8,.0,95.0,.0L25.0,.0C11.2,.0,.0,11.2,.0,25.0C.0,38.8,11.2,50.0,25.0,50.0z" fill-rule="nonzero" fill="#f4f9f7"/><text xml:space="preserve" style="fill:#303030;font-family:Microsoft YaHei;font-size:10.00pt"><tspan x="8.0" y="31.0">获取同步资源的锁</tspan></text></g><g id="group9" transform="translate(304.00,210.00)"><path stroke="#a8df41" stroke-width="3.333329916000366" d="M.0,.0L359.0,.0L359.0,378.0L.0,378.0L.0,.0z" id="shape10" fill-rule="nonzero" fill="#f8fcf4"/><g id="shape11" transform="translate(10.00,0.00)"><text xml:space="preserve" style="fill:#303030;font-family:Microsoft YaHei;font-size:10.00pt"><tspan x="143.5" y="21.0">非自旋锁</tspan></text></g></g><g id="shape12" transform="translate(320.00,254.10)"><path stroke="#35b58f" stroke-width="3.333329916000366" d="M120.0,59.0L120.0,11.0C120.0,4.9,115.1,.0,109.0,.0L11.0,.0C4.9,.0,.0,4.9,.0,11.0L.0,59.0C.0,65.1,4.9,70.0,11.0,70.0L109.0,70.0C115.1,70.0,120.0,65.1,120.0,59.0z" fill-rule="nonzero" fill="#f4f9f7"/><text xml:space="preserve" style="fill:#303030;font-family:Microsoft YaHei;font-size:10.00pt"><tspan x="9.6" y="32.0">cpu切换状态使当</tspan><tspan x="27.5" y="50.0">前线程休眠</tspan></text></g><g id="shape13" transform="translate(513.00,254.10)"><path stroke="#35b58f" stroke-width="3.333329916000366" d="M120.0,59.0L120.0,11.0C120.0,4.9,115.1,.0,109.0,.0L11.0,.0C4.9,.0,.0,4.9,.0,11.0L.0,59.0C.0,65.1,4.9,70.0,11.0,70.0L109.0,70.0C115.1,70.0,120.0,65.1,120.0,59.0z" fill-rule="nonzero" fill="#f4f9f7"/><text xml:space="preserve" style="fill:#303030;font-family:Microsoft YaHei;font-size:10.00pt"><tspan x="22.6" y="32.0">cpu切换线程</tspan><tspan x="21.0" y="50.0">执行其他操作</tspan></text></g><g id="shape14" transform="translate(513.00,367.25)"><path stroke="#35b58f" stroke-width="3.333329916000366" d="M120.0,59.0L120.0,11.0C120.0,4.9,115.1,.0,109.0,.0L11.0,.0C4.9,.0,.0,4.9,.0,11.0L.0,59.0C.0,65.1,4.9,70.0,11.0,70.0L109.0,70.0C115.1,70.0,120.0,65.1,120.0,59.0z" fill-rule="nonzero" fill="#f4f9f7"/><text xml:space="preserve" style="fill:#303030;font-family:Microsoft YaHei;font-size:10.00pt"><tspan x="8.0" y="32.0">占用同步资源的线</tspan><tspan x="27.5" y="50.0">程释放了锁</tspan></text></g><g id="shape15" transform="translate(513.00,480.40)"><path stroke="#35b58f" stroke-width="3.333329916000366" d="M120.0,59.0L120.0,11.0C120.0,4.9,115.1,.0,109.0,.0L11.0,.0C4.9,.0,.0,4.9,.0,11.0L.0,59.0C.0,65.1,4.9,70.0,11.0,70.0L109.0,70.0C115.1,70.0,120.0,65.1,120.0,59.0z" fill-rule="nonzero" fill="#f4f9f7"/><text xml:space="preserve" style="fill:#303030;font-family:Microsoft YaHei;font-size:10.00pt"><tspan x="34.0" y="41.0">恢复线程</tspan></text></g><g id="shape16" transform="translate(320.00,464.90)"><path stroke="#35b58f" stroke-width="3.333329916000366" d="M.0,50.5L60.0,.0L120.0,50.5L60.0,101.0L.0,50.5z" fill-rule="nonzero" fill="#f4f9f7"/><text xml:space="preserve" style="fill:#303030;font-family:Microsoft YaHei;font-size:10.00pt"><tspan x="21.0" y="56.5">再尝试获取锁</tspan></text></g><g id="shape17" transform="translate(289.00,90.00)"><path stroke="#454545" stroke-width="2" d="M.0,.0L.0,34.6" fill="none"/><path stroke="#454545" stroke-width="1" d="M4.2,34.6L.0,43.1L-4.2,34.6L4.2,34.6" stroke-linecap="round" fill="#454545"/></g><g id="shape18" transform="translate(229.00,173.05)"><path stroke="#c1beff" stroke-width="2" d="M.0,.0L-71.0,.0L-71.0,75.0L-72.0,75.0" fill="none"/><path stroke="#c1beff" stroke-width="1" d="M-67.8,72.6L-72.0,81.1L-76.2,72.6L-67.8,72.6" stroke-linecap="round" fill="#c1beff"/></g><g id="shape19" transform="translate(157.00,324.10)"><path stroke="#c1beff" stroke-width="2" d="M.0,.0L.0,131.5" fill="none"/><path stroke="#c1beff" stroke-width="1" d="M4.2,131.5L.0,140.0L-4.2,131.5L4.2,131.5" stroke-linecap="round" fill="#c1beff"/></g><g id="shape20" transform="translate(97.00,515.40)"><path stroke="#c1beff" stroke-width="2" d="M.0,.0L-39.0,.0L-39.0,-226.0L-19.5,-226.0" fill="none"/><path stroke="#c1beff" stroke-width="1" d="M-19.5,-230.2L-11.0,-226.0L-19.5,-221.8L-19.5,-230.2" stroke-linecap="round" fill="#c1beff"/><rect x="-51.0" width="26.0" fill="#ffffff" height="18.0" y="-134.5"/><text xml:space="preserve" style="fill:#454545;font-family:Microsoft YaHei;font-size:10.00pt"><tspan x="-51.0" y="-119.5">失败</tspan></text></g><g id="shape21" transform="translate(349.00,173.05)"><path stroke="#4cbdb2" stroke-width="2" d="M.0,.0L31.0,.0L31.0,72.6" fill="none"/><path stroke="#4cbdb2" stroke-width="1" d="M35.2,72.6L31.0,81.1L26.8,72.6L35.2,72.6" stroke-linecap="round" fill="#4cbdb2"/></g><g id="shape22" transform="translate(440.00,289.10)"><path stroke="#4cbdb2" stroke-width="2" d="M.0,.0L64.5,.0" fill="none"/><path stroke="#4cbdb2" stroke-width="1" d="M64.5,-4.2L73.0,.0L64.5,4.2L64.5,-4.2" stroke-linecap="round" fill="#4cbdb2"/></g><g id="shape23" transform="translate(573.00,324.10)"><path stroke="#4cbdb2" stroke-width="2" d="M.0,.0L.0,34.5" fill="none"/><path stroke="#4cbdb2" stroke-width="1" d="M4.2,34.5L.0,43.0L-4.2,34.5L4.2,34.5" stroke-linecap="round" fill="#4cbdb2"/></g><g id="shape24" transform="translate(573.00,437.25)"><path stroke="#4cbdb2" stroke-width="2" d="M.0,.0L.0,34.5" fill="none"/><path stroke="#4cbdb2" stroke-width="1" d="M4.2,34.5L.0,43.0L-4.2,34.5L4.2,34.5" stroke-linecap="round" fill="#4cbdb2"/></g><g id="shape25" transform="translate(513.00,515.40)"><path stroke="#4cbdb2" stroke-width="2" d="M.0,.0L-64.5,.0" fill="none"/><path stroke="#4cbdb2" stroke-width="1" d="M-64.5,4.2L-73.0,.0L-64.5,-4.2L-64.5,4.2" stroke-linecap="round" fill="#4cbdb2"/></g><g id="shape26" transform="translate(380.00,464.90)"><path stroke="#4cbdb2" stroke-width="2" d="M.0,.0L.0,-131.5" fill="none"/><path stroke="#4cbdb2" stroke-width="1" d="M-4.2,-131.5L.0,-140.0L4.2,-131.5L-4.2,-131.5" stroke-linecap="round" fill="#4cbdb2"/><rect x="-12.0" width="26.0" fill="#ffffff" height="18.0" y="-71.1"/><text xml:space="preserve" style="fill:#454545;font-family:Microsoft YaHei;font-size:10.00pt"><tspan x="-12.0" y="-56.1">失败</tspan></text></g><g id="shape27" transform="translate(380.00,565.90)"><path stroke="#4cbdb2" stroke-width="2" d="M.0,.0L.0,71.0L-37.5,71.0" fill="none"/><path stroke="#4cbdb2" stroke-width="1" d="M-37.5,75.2L-46.0,71.0L-37.5,66.8L-37.5,75.2" stroke-linecap="round" fill="#4cbdb2"/><rect x="-12.0" width="26.0" fill="#ffffff" height="18.0" y="35.0"/><text xml:space="preserve" style="fill:#454545;font-family:Microsoft YaHei;font-size:10.00pt"><tspan x="-12.0" y="50.0">成功</tspan></text></g><g id="shape28" transform="translate(157.00,565.90)"><path stroke="#c1beff" stroke-width="2" d="M.0,.0L.0,68.0L48.5,68.0" fill="none"/><path stroke="#c1beff" stroke-width="1" d="M48.5,63.8L57.0,68.0L48.5,72.2L48.5,63.8" stroke-linecap="round" fill="#c1beff"/><rect x="-12.0" width="26.0" fill="#ffffff" height="18.0" y="43.2"/><text xml:space="preserve" style="fill:#454545;font-family:Microsoft YaHei;font-size:10.00pt"><tspan x="-12.0" y="58.2">成功</tspan></text></g></g></svg>